<?xml version="1.0" encoding="UTF-8"?>
<svg id="Layer_1" data-name="Layer 1" xmlns="http://www.w3.org/2000/svg" viewBox="226.38 226.38 571.24 571.24">
  <defs>
    <style>
      .cls-1 {
        fill: #18b6a7;
      }

      .cls-2 {
        fill: #eea228;
      }
    </style>
  </defs>
  <circle class="cls-2" cx="512" cy="512" r="86.56"/>
  <g>
    <path class="cls-1" d="m702.66,321.36c-50.93-50.93-118.63-78.98-190.66-78.98s-139.73,28.05-190.64,78.98c-50.93,50.91-78.98,118.62-78.98,190.64s28.05,139.73,78.98,190.64c50.91,50.93,118.63,78.98,190.64,78.98s139.73-28.05,190.66-78.98c50.91-50.91,78.96-118.63,78.96-190.64s-28.05-139.73-78.96-190.64Zm-190.66,455.63c-146.11,0-264.99-118.88-264.99-264.99s118.88-264.99,264.99-264.99,264.99,118.88,264.99,264.99-118.88,264.99-264.99,264.99Z"/>
    <path class="cls-1" d="m533.88,327.03c-.09-.03-.18-.03-.28-.03-7.09-.83-14.3-1.26-21.6-1.26-9.13,0-18.13.66-26.91,1.95-.09,0-.18.02-.26.05-89.88,13.18-159.07,90.78-159.07,184.26,0,24.16,4.61,47.25,13.02,68.44,6.03,15.21,13.99,29.43,23.6,42.36,33.97,45.75,88.39,75.45,149.62,75.45s114.19-28.91,148.22-73.61c9.4-12.32,17.28-25.83,23.39-40.27,9.44-22.27,14.65-46.73,14.65-72.38,0-95.31-71.95-174.11-164.38-184.97Zm146.02,254.15c-6.21,15.07-14.41,29.12-24.26,41.84-33.24,42.92-85.26,70.6-143.64,70.6s-112.53-28.83-145.66-73.27c-9.55-12.79-17.45-26.88-23.37-41.96-8.12-20.57-12.58-42.96-12.58-66.38,0-91.02,67.29-166.61,154.75-179.63.11-.02.22-.03.32-.05,8.66-1.28,17.53-1.94,26.54-1.94,7.23,0,14.36.43,21.37,1.26.11,0,.22.02.31.03,89.97,10.75,159.93,87.51,159.93,180.32,0,24.48-4.87,47.85-13.72,69.18Z"/>
    <path class="cls-1" d="m678.46,580.25c-10.83-6.5-24.68-3.57-32.03,6.39l-40.31-24.2-2.38,3.97,40.31,24.2c-5.34,11.17-1.41,24.77,9.42,31.27,11.5,6.9,26.41,3.18,33.31-8.32,6.9-11.5,3.18-26.41-8.32-33.31Z"/>
    <path class="cls-1" d="m485.08,327.48c-.06,12.63,9.54,23.04,21.86,24.27l-.21,47.02,4.63.02.21-47.02c12.33-1.11,22.02-11.44,22.07-24.07.06-13.41-10.76-24.33-24.17-24.39-13.41-.06-24.33,10.76-24.39,24.17Z"/>
  </g>
</svg>
