<?xml version="1.0" encoding="UTF-8"?>
<svg id="Layer_1" data-name="Layer 1" xmlns="http://www.w3.org/2000/svg" viewBox="30 240 1035 250" shape-rendering="geometricPrecision">
  <defs>
    <style>
      .cls-1 {
        fill: #18b6a7;
      }

      .cls-2 {
        fill: #fff;
      }

      .cls-3 {
        fill: #eea228;
      }
    </style>
  </defs>
  <g>
    <g>
      <path class="cls-1" d="m343.54,376.98c-7.42,0-13.83-1.61-19.2-4.85-5.38-3.23-9.52-7.75-12.42-13.56-2.91-5.81-4.36-12.56-4.36-20.26s1.45-14.45,4.36-20.26c2.9-5.81,7.05-10.33,12.42-13.56,5.38-3.23,11.78-4.85,19.2-4.85s13.83,1.62,19.2,4.85c5.38,3.23,9.52,7.75,12.43,13.56,2.9,5.81,4.36,12.56,4.36,20.26s-1.45,14.45-4.36,20.26c-2.91,5.81-7.05,10.33-12.43,13.56-5.38,3.23-11.78,4.85-19.2,4.85Zm0-13.2c4.71.07,8.63-.94,11.76-3.04,3.13-2.1,5.47-5.07,7.04-8.92,1.56-3.85,2.35-8.35,2.35-13.51s-.78-9.62-2.35-13.4c-1.56-3.78-3.91-6.72-7.04-8.82-3.13-2.1-7.05-3.18-11.76-3.25-4.71-.07-8.63.95-11.75,3.04-3.13,2.1-5.47,5.07-7.04,8.92-1.56,3.85-2.35,8.35-2.35,13.51s.78,9.62,2.35,13.4c1.56,3.78,3.91,6.72,7.04,8.82,3.13,2.1,7.05,3.18,11.75,3.25Z"/>
      <path class="cls-1" d="m389.73,375.43v-55.68h12.47v18.46h1.75v37.22h-14.23Zm38.05,0v-26.29c0-1.27-.07-2.9-.21-4.87-.14-1.98-.57-3.96-1.29-5.95-.72-1.99-1.9-3.66-3.53-5-1.63-1.34-3.94-2.01-6.93-2.01-1.2,0-2.49.19-3.87.57-1.38.38-2.66,1.11-3.87,2.19-1.2,1.08-2.19,2.67-2.96,4.77-.77,2.1-1.16,4.88-1.16,8.35l-8.04-3.82c0-4.4.89-8.52,2.68-12.37,1.79-3.85,4.48-6.96,8.07-9.33,3.59-2.37,8.12-3.56,13.59-3.56,4.36,0,7.92.74,10.67,2.22,2.75,1.48,4.89,3.35,6.42,5.62s2.62,4.63,3.27,7.09c.65,2.46,1.05,4.7,1.19,6.73.14,2.03.21,3.51.21,4.43v31.24h-14.23Z"/>
      <path class="cls-1" d="m480.26,376.98c-5.71,0-10.73-1.23-15.08-3.69-4.35-2.46-7.75-5.84-10.21-10.16-2.46-4.31-3.69-9.25-3.69-14.82,0-6.08,1.2-11.38,3.61-15.88,2.41-4.5,5.72-8,9.95-10.49,4.23-2.49,9.09-3.74,14.59-3.74,5.84,0,10.81,1.38,14.9,4.12,4.09,2.75,7.11,6.62,9.07,11.6,1.96,4.98,2.65,10.84,2.06,17.58h-13.87v-5.16c0-5.67-.9-9.75-2.71-12.24-1.8-2.49-4.75-3.74-8.84-3.74-4.78,0-8.29,1.45-10.54,4.36-2.25,2.91-3.38,7.19-3.38,12.86,0,5.19,1.12,9.2,3.38,12.04,2.25,2.84,5.56,4.25,9.92,4.25,2.75,0,5.1-.6,7.06-1.8,1.96-1.2,3.45-2.94,4.49-5.21l14.02,4.02c-2.1,5.09-5.41,9.04-9.93,11.86-4.52,2.82-9.46,4.23-14.82,4.23Zm-18.46-25.47v-10.41h36.91v10.41h-36.91Z"/>
      <path class="cls-1" d="m550,376.98c-7.42,0-13.83-1.61-19.2-4.85-5.38-3.23-9.52-7.75-12.42-13.56-2.91-5.81-4.36-12.56-4.36-20.26s1.45-14.45,4.36-20.26c2.9-5.81,7.05-10.33,12.42-13.56,5.38-3.23,11.78-4.85,19.2-4.85,8.52,0,15.68,2.11,21.47,6.34,5.79,4.23,9.87,9.95,12.24,17.17l-14.12,3.92c-1.38-4.5-3.7-8-6.96-10.49-3.27-2.49-7.48-3.74-12.63-3.74-4.71,0-8.64,1.05-11.78,3.15-3.15,2.1-5.51,5.05-7.09,8.87-1.58,3.82-2.37,8.3-2.37,13.46s.79,9.64,2.37,13.46c1.58,3.82,3.94,6.77,7.09,8.87,3.14,2.1,7.07,3.15,11.78,3.15,5.16,0,9.37-1.25,12.63-3.76,3.26-2.51,5.58-6,6.96-10.47l14.12,3.92c-2.37,7.22-6.45,12.94-12.24,17.17-5.79,4.23-12.95,6.34-21.47,6.34Z"/>
      <path class="cls-1" d="m620.12,376.98c-5.6,0-10.52-1.26-14.74-3.76-4.23-2.51-7.52-5.97-9.87-10.39-2.35-4.42-3.53-9.49-3.53-15.23s1.2-10.92,3.61-15.34c2.41-4.42,5.72-7.86,9.95-10.34,4.23-2.47,9.09-3.71,14.59-3.71s10.53,1.26,14.77,3.76c4.24,2.51,7.55,5.97,9.92,10.39,2.37,4.42,3.56,9.49,3.56,15.23s-1.2,10.87-3.58,15.29c-2.39,4.42-5.71,7.87-9.95,10.36-4.25,2.49-9.15,3.74-14.72,3.74Zm0-13.09c4.5,0,7.86-1.52,10.08-4.56,2.22-3.04,3.33-6.95,3.33-11.73s-1.13-8.9-3.38-11.86c-2.25-2.96-5.59-4.43-10.03-4.43-3.06,0-5.57.69-7.53,2.06-1.96,1.38-3.41,3.28-4.36,5.72-.95,2.44-1.42,5.28-1.42,8.51,0,4.98,1.12,8.95,3.38,11.88,2.25,2.94,5.56,4.41,9.92,4.41Z"/>
      <path class="cls-1" d="m659.61,375.43v-55.68h12.47v18.46h1.75v37.22h-14.23Zm38.05,0v-26.29c0-1.27-.07-2.9-.21-4.87-.14-1.98-.57-3.96-1.29-5.95-.72-1.99-1.9-3.66-3.53-5-1.63-1.34-3.94-2.01-6.93-2.01-1.2,0-2.49.19-3.87.57-1.38.38-2.66,1.11-3.87,2.19-1.2,1.08-2.19,2.67-2.96,4.77-.77,2.1-1.16,4.88-1.16,8.35l-8.04-3.82c0-4.4.89-8.52,2.68-12.37,1.79-3.85,4.48-6.96,8.07-9.33,3.59-2.37,8.12-3.56,13.59-3.56,4.36,0,7.92.74,10.67,2.22,2.75,1.48,4.89,3.35,6.42,5.62,1.53,2.27,2.62,4.63,3.27,7.09.65,2.46,1.05,4.7,1.19,6.73.14,2.03.21,3.51.21,4.43v31.24h-14.23Z"/>
      <path class="cls-1" d="m748.8,376.98c-5.77,0-10.72-1.29-14.85-3.87-4.12-2.58-7.29-6.08-9.49-10.52-2.2-4.43-3.3-9.43-3.3-15s1.14-10.67,3.43-15.11c2.29-4.43,5.51-7.92,9.67-10.47,4.16-2.54,9.07-3.82,14.75-3.82,6.56,0,12.07,1.66,16.52,4.98,4.45,3.32,7.29,7.84,8.53,13.58l-14.02,3.71c-.82-2.89-2.26-5.14-4.31-6.75-2.05-1.62-4.36-2.42-6.93-2.42-2.96,0-5.38.71-7.27,2.14-1.89,1.43-3.28,3.37-4.18,5.83-.89,2.46-1.34,5.23-1.34,8.33,0,4.85,1.07,8.77,3.22,11.78s5.34,4.51,9.56,4.51c3.16,0,5.57-.72,7.22-2.17,1.65-1.44,2.89-3.51,3.71-6.19l14.33,2.99c-1.58,5.91-4.57,10.47-8.97,13.66-4.4,3.2-9.83,4.79-16.29,4.79Z"/>
      <path class="cls-1" d="m807.88,376.98c-5.6,0-10.52-1.26-14.74-3.76-4.23-2.51-7.52-5.97-9.87-10.39-2.35-4.42-3.53-9.49-3.53-15.23s1.2-10.92,3.61-15.34c2.41-4.42,5.72-7.86,9.95-10.34,4.23-2.47,9.09-3.71,14.59-3.71s10.53,1.26,14.77,3.76c4.24,2.51,7.55,5.97,9.92,10.39,2.37,4.42,3.56,9.49,3.56,15.23s-1.2,10.87-3.58,15.29c-2.39,4.42-5.71,7.87-9.95,10.36-4.25,2.49-9.15,3.74-14.72,3.74Zm0-13.09c4.5,0,7.86-1.52,10.08-4.56,2.22-3.04,3.33-6.95,3.33-11.73s-1.13-8.9-3.38-11.86c-2.25-2.96-5.59-4.43-10.03-4.43-3.06,0-5.57.69-7.53,2.06-1.96,1.38-3.41,3.28-4.36,5.72-.95,2.44-1.42,5.28-1.42,8.51,0,4.98,1.12,8.95,3.38,11.88,2.25,2.94,5.56,4.41,9.92,4.41Z"/>
      <path class="cls-1" d="m847.47,375.43v-55.68h12.37v13.61l-1.34-1.75c.72-1.92,1.68-3.68,2.89-5.26,1.2-1.58,2.68-2.89,4.43-3.92,1.34-.82,2.8-1.47,4.38-1.93,1.58-.46,3.21-.76,4.9-.88,1.68-.12,3.37-.08,5.05.13v13.09c-1.55-.48-3.34-.64-5.39-.49-2.05.15-3.89.63-5.54,1.42-1.65.76-3.04,1.76-4.18,3.02-1.13,1.26-1.99,2.73-2.58,4.43-.59,1.7-.88,3.62-.88,5.75v28.46h-14.13Z"/>
      <path class="cls-1" d="m911.5,376.98c-5.12,0-9.61-1.29-13.46-3.87-3.85-2.58-6.85-6.08-9-10.52-2.15-4.43-3.22-9.43-3.22-15s1.09-10.71,3.27-15.13c2.18-4.42,5.25-7.9,9.2-10.44,3.95-2.54,8.59-3.82,13.92-3.82s9.74,1.29,13.35,3.87c3.61,2.58,6.34,6.08,8.2,10.52,1.86,4.43,2.78,9.44,2.78,15s-.94,10.57-2.81,15c-1.87,4.43-4.67,7.94-8.38,10.52-3.71,2.58-8.33,3.87-13.87,3.87Zm2.27-12.48c3.13,0,5.63-.7,7.5-2.11,1.87-1.41,3.22-3.38,4.05-5.93.82-2.54,1.24-5.5,1.24-8.87s-.41-6.32-1.24-8.87c-.82-2.54-2.14-4.52-3.94-5.93-1.8-1.41-4.17-2.11-7.09-2.11-3.13,0-5.7.76-7.71,2.29-2.01,1.53-3.5,3.58-4.46,6.14-.96,2.56-1.44,5.39-1.44,8.48s.46,5.97,1.39,8.53c.93,2.56,2.35,4.6,4.28,6.11,1.92,1.51,4.4,2.27,7.42,2.27Zm12.79,10.93v-38.15h-1.75v-36.09h14.13v74.24h-12.37Z"/>
      <path class="cls-2" d="m966.06,375.43l22.68-74.24h20.93l22.68,74.24h-14.44l-20.21-65.47h2.68l-19.9,65.47h-14.44Zm13.61-15.47v-13.09h39.18v13.09h-39.18Z"/>
      <path class="cls-2" d="m1042.67,375.43v-74.24h14.02v74.24h-14.02Z"/>
    </g>
    <g>
      <path class="cls-2" d="m308.11,426.89l6.33-20.08h4.92l6.33,20.08h-3.46l-5.75-18.02h.75l-5.68,18.02h-3.46Zm3.53-4.35v-3.14h10.54v3.14h-10.54Z"/>
      <path class="cls-2" d="m341.34,427.31c-1.6,0-3.01-.33-4.22-.98-1.21-.65-2.16-1.57-2.84-2.75-.68-1.18-1.03-2.57-1.03-4.16v-12.59l3.4-.03v12.54c0,.75.13,1.43.38,2.02.26.59.6,1.1,1.04,1.51.44.41.94.73,1.51.94.57.21,1.15.32,1.76.32s1.21-.11,1.78-.33c.56-.22,1.06-.54,1.5-.95.44-.41.78-.92,1.03-1.51.25-.6.38-1.26.38-2.01v-12.54h3.4v12.62c0,1.59-.34,2.98-1.02,4.16-.68,1.18-1.63,2.1-2.85,2.75-1.21.65-2.62.98-4.22.98Z"/>
      <path class="cls-2" d="m363.77,426.89v-16.93h-6.5v-3.15h16.36v3.15h-6.5v16.93h-3.36Z"/>
      <path class="cls-2" d="m389.96,427.31c-2.01,0-3.73-.44-5.16-1.32-1.43-.88-2.53-2.1-3.3-3.68-.77-1.57-1.15-3.39-1.15-5.47s.38-3.9,1.15-5.47c.77-1.57,1.87-2.8,3.3-3.68,1.43-.88,3.15-1.32,5.16-1.32s3.73.44,5.17,1.32,2.54,2.1,3.31,3.68,1.15,3.39,1.15,5.47-.39,3.9-1.15,5.47-1.87,2.8-3.31,3.68c-1.44.88-3.16,1.32-5.17,1.32Zm0-3.17c1.35,0,2.47-.29,3.37-.89.9-.6,1.57-1.46,2.02-2.55.45-1.1.68-2.38.68-3.85s-.23-2.74-.68-3.83c-.45-1.08-1.13-1.93-2.02-2.53-.9-.6-2.02-.92-3.37-.93-1.35,0-2.47.29-3.36.89-.89.6-1.56,1.46-2.01,2.55-.45,1.1-.68,2.38-.68,3.85s.22,2.75.67,3.83c.45,1.08,1.12,1.93,2.02,2.53.9.6,2.02.92,3.37.94Z"/>
      <path class="cls-2" d="m407.98,426.89v-20.08h3.4l9.32,14.16v-14.16h3.4v20.08h-3.4l-9.32-14.16v14.16h-3.4Z"/>
      <path class="cls-2" d="m442.11,427.31c-2.01,0-3.73-.44-5.16-1.32-1.43-.88-2.53-2.1-3.3-3.68-.77-1.57-1.15-3.39-1.15-5.47s.38-3.9,1.15-5.47c.77-1.57,1.87-2.8,3.3-3.68,1.43-.88,3.15-1.32,5.16-1.32s3.73.44,5.17,1.32,2.54,2.1,3.31,3.68,1.15,3.39,1.15,5.47-.39,3.9-1.15,5.47-1.87,2.8-3.31,3.68c-1.44.88-3.16,1.32-5.17,1.32Zm0-3.17c1.35,0,2.47-.29,3.37-.89.9-.6,1.57-1.46,2.02-2.55.45-1.1.68-2.38.68-3.85s-.23-2.74-.68-3.83c-.45-1.08-1.13-1.93-2.02-2.53-.9-.6-2.02-.92-3.37-.93-1.35,0-2.47.29-3.36.89-.89.6-1.56,1.46-2.01,2.55-.45,1.1-.68,2.38-.68,3.85s.22,2.75.67,3.83c.45,1.08,1.12,1.93,2.02,2.53.9.6,2.02.92,3.37.94Z"/>
      <path class="cls-2" d="m460.13,426.89v-20.08h3.03l6.94,14.23,6.95-14.23h3.03v20.08h-3.14v-12.87l-6.17,12.87h-1.34l-6.15-12.87v12.87h-3.15Z"/>
      <path class="cls-2" d="m498.08,427.31c-2.01,0-3.73-.44-5.16-1.32-1.43-.88-2.53-2.1-3.3-3.68-.77-1.57-1.15-3.39-1.15-5.47s.38-3.9,1.15-5.47c.77-1.57,1.87-2.8,3.3-3.68,1.43-.88,3.15-1.32,5.16-1.32s3.73.44,5.17,1.32,2.54,2.1,3.31,3.68,1.15,3.39,1.15,5.47-.39,3.9-1.15,5.47-1.87,2.8-3.31,3.68c-1.44.88-3.16,1.32-5.17,1.32Zm0-3.17c1.35,0,2.47-.29,3.37-.89.9-.6,1.57-1.46,2.02-2.55.45-1.1.68-2.38.68-3.85s-.23-2.74-.68-3.83c-.45-1.08-1.13-1.93-2.02-2.53-.9-.6-2.02-.92-3.37-.93-1.35,0-2.47.29-3.36.89-.89.6-1.56,1.46-2.01,2.55-.45,1.1-.68,2.38-.68,3.85s.22,2.75.67,3.83c.45,1.08,1.12,1.93,2.02,2.53.9.6,2.02.92,3.37.94Z"/>
      <path class="cls-2" d="m524.2,427.31c-1.6,0-3.01-.33-4.22-.98-1.21-.65-2.16-1.57-2.84-2.75-.68-1.18-1.03-2.57-1.03-4.16v-12.59l3.4-.03v12.54c0,.75.13,1.43.38,2.02.26.59.6,1.1,1.04,1.51.44.41.94.73,1.51.94.57.21,1.15.32,1.76.32s1.21-.11,1.78-.33c.56-.22,1.06-.54,1.5-.95.44-.41.78-.92,1.03-1.51.25-.6.38-1.26.38-2.01v-12.54h3.4v12.62c0,1.59-.34,2.98-1.02,4.16-.68,1.18-1.63,2.1-2.85,2.75-1.21.65-2.62.98-4.22.98Z"/>
      <path class="cls-2" d="m548.39,427.31c-1.47,0-2.79-.25-3.97-.77-1.18-.51-2.14-1.24-2.9-2.2-.76-.95-1.24-2.08-1.44-3.4l3.49-.53c.3,1.19.91,2.11,1.83,2.76.93.65,1.99.98,3.2.98.72,0,1.39-.11,2.02-.34.63-.22,1.15-.55,1.54-.98.4-.43.59-.95.59-1.58,0-.28-.05-.54-.14-.77-.09-.24-.23-.45-.41-.64-.18-.19-.41-.36-.7-.51-.28-.15-.61-.29-.98-.4l-5.19-1.53c-.45-.13-.93-.3-1.44-.52-.52-.22-1-.52-1.47-.91-.46-.39-.84-.88-1.13-1.48-.29-.6-.44-1.34-.44-2.22,0-1.29.33-2.38.98-3.26s1.54-1.54,2.65-1.97,2.35-.65,3.7-.64c1.38,0,2.6.24,3.68.7,1.08.46,1.98,1.13,2.71,2,.72.87,1.23,1.93,1.53,3.17l-3.61.63c-.15-.71-.43-1.31-.86-1.81s-.94-.88-1.55-1.14c-.61-.26-1.26-.4-1.95-.42-.67,0-1.29.09-1.86.3s-1.03.51-1.38.9-.52.85-.52,1.37c0,.49.15.9.45,1.21.3.31.67.56,1.11.74s.89.33,1.35.45l3.6,1c.49.13,1.05.31,1.66.53s1.2.53,1.77.93c.57.4,1.03.93,1.4,1.58.37.65.55,1.48.55,2.48s-.22,1.96-.65,2.74c-.43.79-1.02,1.44-1.75,1.96-.74.52-1.57.91-2.52,1.17-.94.26-1.93.39-2.96.39Z"/>
      <path class="cls-2" d="m576.09,426.89v-20.08h12.97v3.15h-9.61v4.95h7.94v3.15h-7.94v5.68h9.61v3.15h-12.97Z"/>
      <path class="cls-2" d="m598.02,426.89v-20.08h3.4l9.32,14.16v-14.16h3.4v20.08h-3.4l-9.32-14.16v14.16h-3.4Z"/>
      <path class="cls-2" d="m628.48,426.89v-16.93h-6.5v-3.15h16.36v3.15h-6.5v16.93h-3.36Z"/>
      <path class="cls-2" d="m646.18,426.89v-20.08h12.97v3.15h-9.61v4.95h7.94v3.15h-7.94v5.68h9.61v3.15h-12.97Z"/>
      <path class="cls-2" d="m668.1,426.89v-20.08h8.3c.19,0,.45,0,.75.02.31.01.59.05.85.09,1.16.18,2.12.56,2.88,1.16.76.59,1.32,1.35,1.69,2.25s.55,1.91.55,3.02c0,1.64-.41,3.04-1.24,4.22s-2.1,1.9-3.81,2.18l-1.44.13h-5.17v7.02h-3.36Zm3.36-10.15h4.8c.19,0,.4,0,.63-.03.23-.02.44-.06.64-.11.56-.14,1-.39,1.32-.74.32-.35.55-.75.68-1.2.13-.45.2-.88.2-1.31s-.07-.87-.2-1.32-.36-.85-.68-1.21c-.32-.35-.76-.6-1.32-.74-.2-.06-.41-.09-.64-.11s-.44-.02-.63-.02h-4.8v6.78Zm8.17,10.15l-3.96-8.17,3.42-.75,4.35,8.93h-3.81Z"/>
      <path class="cls-2" d="m692.12,426.89v-20.08h8.3c.19,0,.45,0,.75.02.31.01.59.05.85.09,1.16.18,2.12.56,2.88,1.16.76.59,1.32,1.35,1.69,2.25s.55,1.91.55,3.02-.19,2.1-.56,3.01c-.37.91-.94,1.66-1.69,2.25s-1.71.98-2.87,1.16c-.26.04-.55.06-.86.08-.31.02-.56.03-.75.03h-4.94v7.02h-3.36Zm3.36-10.15h4.8c.19,0,.4,0,.63-.03.23-.02.44-.06.64-.11.56-.14,1-.39,1.32-.74.32-.35.55-.75.68-1.2.13-.45.2-.88.2-1.31s-.07-.87-.2-1.32-.36-.85-.68-1.21c-.32-.35-.76-.6-1.32-.74-.2-.06-.41-.09-.64-.11s-.44-.02-.63-.02h-4.8v6.78Z"/>
      <path class="cls-2" d="m715.54,426.89v-20.08h8.3c.19,0,.45,0,.75.02.31.01.59.05.85.09,1.16.18,2.12.56,2.88,1.16.76.59,1.32,1.35,1.69,2.25s.55,1.91.55,3.02c0,1.64-.41,3.04-1.24,4.22s-2.1,1.9-3.81,2.18l-1.44.13h-5.17v7.02h-3.36Zm3.36-10.15h4.8c.19,0,.4,0,.63-.03.23-.02.44-.06.64-.11.56-.14,1-.39,1.32-.74.32-.35.55-.75.68-1.2.13-.45.2-.88.2-1.31s-.07-.87-.2-1.32-.36-.85-.68-1.21c-.32-.35-.76-.6-1.32-.74-.2-.06-.41-.09-.64-.11s-.44-.02-.63-.02h-4.8v6.78Zm8.17,10.15l-3.96-8.17,3.42-.75,4.35,8.93h-3.81Z"/>
      <path class="cls-2" d="m739.84,426.89v-20.08h3.36v20.08h-3.36Z"/>
      <path class="cls-2" d="m760.42,427.31c-1.47,0-2.79-.25-3.97-.77-1.18-.51-2.14-1.24-2.9-2.2-.76-.95-1.24-2.08-1.44-3.4l3.49-.53c.3,1.19.91,2.11,1.83,2.76.93.65,1.99.98,3.2.98.72,0,1.39-.11,2.02-.34.63-.22,1.15-.55,1.54-.98.4-.43.59-.95.59-1.58,0-.28-.05-.54-.14-.77-.09-.24-.23-.45-.41-.64-.18-.19-.41-.36-.7-.51-.28-.15-.61-.29-.98-.4l-5.19-1.53c-.45-.13-.93-.3-1.44-.52-.52-.22-1-.52-1.47-.91-.46-.39-.84-.88-1.13-1.48-.29-.6-.44-1.34-.44-2.22,0-1.29.33-2.38.98-3.26s1.54-1.54,2.65-1.97,2.35-.65,3.7-.64c1.38,0,2.6.24,3.68.7,1.08.46,1.98,1.13,2.71,2,.72.87,1.23,1.93,1.53,3.17l-3.61.63c-.15-.71-.43-1.31-.86-1.81s-.94-.88-1.55-1.14c-.61-.26-1.26-.4-1.95-.42-.67,0-1.29.09-1.86.3s-1.03.51-1.38.9-.52.85-.52,1.37c0,.49.15.9.45,1.21.3.31.67.56,1.11.74s.89.33,1.35.45l3.6,1c.49.13,1.05.31,1.66.53s1.2.53,1.77.93c.57.4,1.03.93,1.4,1.58.37.65.55,1.48.55,2.48s-.22,1.96-.65,2.74c-.43.79-1.02,1.44-1.75,1.96-.74.52-1.57.91-2.52,1.17-.94.26-1.93.39-2.96.39Z"/>
      <path class="cls-2" d="m776.93,426.89v-20.08h12.97v3.15h-9.61v4.95h7.94v3.15h-7.94v5.68h9.61v3.15h-12.97Z"/>
      <path class="cls-3" d="m810.33,426.89v-20.08h3.36v20.08h-3.36Z"/>
      <path class="cls-3" d="m823.48,426.89v-20.08h3.4l9.32,14.16v-14.16h3.4v20.08h-3.4l-9.32-14.16v14.16h-3.4Z"/>
      <path class="cls-3" d="m853.94,426.89v-16.93h-6.5v-3.15h16.36v3.15h-6.5v16.93h-3.36Z"/>
      <path class="cls-3" d="m871.64,426.89v-20.08h12.97v3.15h-9.61v4.95h7.94v3.15h-7.94v5.68h9.61v3.15h-12.97Z"/>
      <path class="cls-3" d="m893.84,426.89v-20.08h3.36v16.93h8.87v3.15h-12.23Z"/>
      <path class="cls-3" d="m914.33,426.89v-20.08h3.36v16.93h8.87v3.15h-12.23Z"/>
      <path class="cls-3" d="m934.82,426.89v-20.08h3.36v20.08h-3.36Z"/>
      <path class="cls-3" d="m956.26,427.31c-1.3,0-2.52-.23-3.66-.69-1.14-.46-2.14-1.14-3-2.03-.86-.89-1.53-1.99-2.02-3.29s-.72-2.78-.72-4.46c0-2.19.41-4.07,1.23-5.63.82-1.56,1.94-2.75,3.36-3.58,1.42-.83,3.03-1.25,4.81-1.25,2.47,0,4.43.58,5.88,1.72s2.42,2.76,2.94,4.83l-3.43.54c-.38-1.19-1-2.14-1.87-2.85-.86-.71-1.96-1.07-3.31-1.07-1.35-.02-2.47.28-3.36.88-.89.6-1.56,1.46-2.01,2.55-.45,1.1-.68,2.38-.68,3.85s.22,2.75.67,3.83c.45,1.08,1.12,1.93,2.02,2.53.9.6,2.02.92,3.37.94,1.01,0,1.9-.17,2.66-.55.76-.38,1.39-.95,1.87-1.72s.81-1.73.98-2.88h-3.54v-2.64h7.11c.02.15.03.37.04.66,0,.29.01.46.01.52,0,1.9-.37,3.58-1.12,5.06-.75,1.47-1.82,2.63-3.21,3.47s-3.06,1.25-5.01,1.25Z"/>
      <path class="cls-3" d="m974,426.89v-20.08h12.97v3.15h-9.61v4.95h7.94v3.15h-7.94v5.68h9.61v3.15h-12.97Z"/>
      <path class="cls-3" d="m995.92,426.89v-20.08h3.4l9.32,14.16v-14.16h3.4v20.08h-3.4l-9.32-14.16v14.16h-3.4Z"/>
      <path class="cls-3" d="m1030.05,427.31c-2.01,0-3.73-.44-5.16-1.32-1.43-.88-2.53-2.1-3.3-3.68-.77-1.57-1.15-3.39-1.15-5.47s.38-3.9,1.15-5.47c.77-1.57,1.87-2.8,3.3-3.68,1.43-.88,3.15-1.32,5.16-1.32,2.32,0,4.25.58,5.79,1.74,1.54,1.16,2.63,2.72,3.25,4.68l-3.39.94c-.39-1.31-1.06-2.34-2-3.08-.94-.74-2.16-1.11-3.65-1.11-1.35,0-2.47.3-3.37.91-.9.6-1.57,1.45-2.02,2.55-.45,1.09-.68,2.37-.69,3.84,0,1.47.23,2.75.68,3.84.45,1.09,1.13,1.94,2.03,2.55.9.6,2.03.91,3.37.91,1.5,0,2.72-.37,3.65-1.12.94-.74,1.61-1.77,2-3.07l3.39.94c-.62,1.96-1.71,3.52-3.25,4.68-1.54,1.16-3.47,1.74-5.79,1.74Z"/>
      <path class="cls-3" d="m1047.77,426.89v-20.08h12.97v3.15h-9.61v4.95h7.94v3.15h-7.94v5.68h9.61v3.15h-12.97Z"/>
    </g>
  </g>
  <g>
    <circle class="cls-3" cx="155.07" cy="367.81" r="38.39"/>
    <g>
      <path class="cls-1" d="m239.63,283.26c-22.59-22.59-52.61-35.03-84.56-35.03s-61.97,12.44-84.55,35.03c-22.59,22.58-35.03,52.61-35.03,84.55s12.44,61.97,35.03,84.55c22.58,22.59,52.61,35.03,84.55,35.03s61.97-12.44,84.56-35.03c22.58-22.58,35.02-52.61,35.02-84.55s-12.44-61.97-35.02-84.55Zm-84.56,202.07c-64.8,0-117.52-52.72-117.52-117.52s52.72-117.52,117.52-117.52,117.52,52.72,117.52,117.52-52.72,117.52-117.52,117.52Z"/>
      <path class="cls-1" d="m164.77,285.78s-.08-.01-.12-.01c-3.14-.37-6.34-.56-9.58-.56-4.05,0-8.04.29-11.93.87-.04,0-.08,0-.12.02-39.86,5.84-70.55,40.26-70.55,81.72,0,10.71,2.05,20.96,5.78,30.35,2.67,6.74,6.21,13.05,10.47,18.79,15.06,20.29,39.2,33.46,66.35,33.46s50.64-12.82,65.73-32.65c4.17-5.46,7.67-11.46,10.37-17.86,4.19-9.87,6.5-20.72,6.5-32.1,0-42.27-31.91-77.22-72.9-82.03Zm64.76,112.71c-2.76,6.68-6.39,12.92-10.76,18.56-14.74,19.03-37.81,31.31-63.7,31.31s-49.91-12.79-64.6-32.5c-4.23-5.67-7.74-11.92-10.37-18.61-3.6-9.12-5.58-19.05-5.58-29.44,0-40.36,29.84-73.89,68.63-79.67.05,0,.1-.01.14-.02,3.84-.57,7.77-.86,11.77-.86,3.21,0,6.37.19,9.48.56.05,0,.1,0,.14.01,39.9,4.77,70.93,38.81,70.93,79.97,0,10.86-2.16,21.22-6.08,30.68Z"/>
      <path class="cls-1" d="m228.89,398.08c-4.8-2.88-10.95-1.58-14.2,2.84l-17.88-10.73-1.06,1.76,17.88,10.73c-2.37,4.95-.63,10.99,4.18,13.87,5.1,3.06,11.71,1.41,14.77-3.69,3.06-5.1,1.41-11.71-3.69-14.77Z"/>
      <path class="cls-1" d="m143.13,285.98c-.03,5.6,4.23,10.22,9.69,10.76l-.09,20.85h2.05s.09-20.84.09-20.84c5.47-.49,9.76-5.07,9.79-10.67.03-5.95-4.77-10.79-10.72-10.82-5.95-.03-10.79,4.77-10.82,10.72Z"/>
    </g>
  </g>
</svg>
