<?xml version="1.0" encoding="UTF-8"?>
<svg id="Layer_1" data-name="Layer 1" xmlns="http://www.w3.org/2000/svg" viewBox="0 0 1024 1024">
  <defs>
    <style>
      .cls-1 {
        fill: #18b6a7;
      }

      .cls-2 {
        fill: #fff;
      }

      .cls-3 {
        fill: #eea228;
      }

      .q-logo-satellites {
        transform-origin: 512px 512px;
        animation: qSatellitesRevolve 12s linear infinite;
      }

      @keyframes qSatellitesRevolve {
        from { transform: rotate(0deg); }
        to { transform: rotate(360deg); }
      }
    </style>
  </defs>
  <circle class="cls-3" cx="512" cy="512" r="83.12"/>
  <g>
    <path class="cls-1" d="m695.07,328.94c-48.9-48.9-113.91-75.83-183.07-75.83s-134.17,26.93-183.06,75.83c-48.9,48.89-75.83,113.9-75.83,183.06s26.93,134.17,75.83,183.06c48.89,48.9,113.91,75.83,183.06,75.83s134.17-26.93,183.07-75.83c48.89-48.89,75.82-113.91,75.82-183.06s-26.93-134.17-75.82-183.06Zm-183.07,437.51c-140.3,0-254.45-114.15-254.45-254.45s114.15-254.45,254.45-254.45,254.45,114.15,254.45,254.45-114.15,254.45-254.45,254.45Z"/>
    <path class="cls-1" d="m533.01,334.39c-.09-.03-.18-.03-.27-.03-6.81-.8-13.73-1.21-20.75-1.21-8.77,0-17.41.63-25.84,1.88-.09,0-.18.01-.25.04-86.3,12.65-152.75,87.17-152.75,176.93,0,23.2,4.43,45.37,12.51,65.72,5.79,14.6,13.44,28.26,22.66,40.68,32.62,43.93,84.87,72.45,143.67,72.45s109.65-27.76,142.32-70.68c9.02-11.83,16.6-24.81,22.46-38.67,9.07-21.38,14.07-44.87,14.07-69.5,0-91.51-69.09-167.19-157.84-177.61Zm140.21,244.04c-5.97,14.47-13.83,27.97-23.3,40.18-31.92,41.21-81.87,67.79-137.92,67.79s-108.05-27.68-139.87-70.36c-9.17-12.28-16.76-25.81-22.44-40.29-7.8-19.76-12.08-41.25-12.08-63.74,0-87.4,64.61-159.98,148.6-172.49.1-.01.21-.03.31-.04,8.31-1.23,16.83-1.86,25.48-1.86,6.94,0,13.79.41,20.52,1.21.1,0,.21.01.3.03,86.39,10.32,153.57,84.03,153.57,173.15,0,23.51-4.68,45.95-13.17,66.43Z"/>
    <path class="cls-1" d="m511.69,359.11v44.62h-4.44v-44.62c.72.07,1.46.1,2.21.1s1.51-.03,2.23-.1Z"/>
    <g class="q-logo-satellites" id="q-logo-satellites">
      <path class="cls-1" d="m671.84,577.53c-10.4-6.24-23.7-3.43-30.75,6.14l-38.71-23.24-2.29,3.81,38.71,23.24c-5.13,10.72-1.35,23.79,9.04,30.03,11.04,6.63,25.36,3.05,31.99-7.99,6.63-11.04,3.05-25.36-7.99-31.99Z"/>
      <g>
        <path class="cls-2" d="m533.83,335.64c0,1.09-.07,2.16-.22,3.2-1.46,10.76-10.22,19.22-21.13,20.26-.72.07-1.48.1-2.23.1s-1.49-.03-2.21-.1c-10.69-1-19.3-9.14-21.04-19.59-.21-1.26-.31-2.55-.31-3.87,0-.19,0-.38.01-.58.22-9.55,6.13-17.7,14.47-21.17.68-.28,1.37-.55,2.08-.77.02-.01.03-.01.06-.01.74-.22,1.48-.41,2.24-.58,1.51-.31,3.09-.47,4.7-.47,1.22,0,2.42.09,3.59.27,1.15.18,2.26.44,3.35.78,9.26,2.83,16.08,11.22,16.61,21.28.02.41.03.83.03,1.26Z"/>
        <path class="cls-1" d="m510.25,361.06c-.87,0-1.65-.04-2.4-.11-11.45-1.07-20.78-9.76-22.68-21.13-.22-1.36-.33-2.76-.33-4.17,0-.24,0-.48.02-.71.23-9.93,6.35-18.89,15.6-22.74.68-.28,1.27-.5,1.82-.69l.23-.22h.51c.73-.22,1.43-.4,2.15-.55,2.92-.6,6.05-.67,8.94-.23,1.2.18,2.39.46,3.62.84,10.15,3.11,17.34,12.33,17.91,22.94.02.47.03.9.03,1.35,0,1.17-.08,2.33-.24,3.46-1.59,11.74-10.96,20.72-22.78,21.84-.73.07-1.54.11-2.4.11Zm-6.6-46.12c-.52.17-1.09.38-1.77.66-7.9,3.28-13.13,10.94-13.33,19.51-.02.24-.01.39-.01.53,0,1.21.1,2.42.29,3.57,1.62,9.71,9.59,17.14,19.39,18.05,1.28.13,2.85.13,4.08,0,9.96-.94,18.15-8.79,19.49-18.67.14-.98.2-1.94.2-2.96,0-.41-.01-.8-.03-1.19-.48-9.04-6.63-16.92-15.31-19.58-1.07-.33-2.07-.57-3.09-.72-2.46-.37-5.16-.32-7.63.19-.71.15-1.4.33-2.09.54l-.19.06Z"/>
      </g>
    </g>
  </g>
</svg>
